# xmcd CD database file
#
# Track frame offsets:
#	150
#	17205
#	31119
#	47437
#	61465
#	79260
#	91655
#	107310
#	124440
#	140982
#	154515
#	169422
#	186575
#	205450
#	215965
#	233800
#	248472
#	264377
#	280982
#	300500
#	310662
#
# Disc length: 4312 seconds
#
# Revision: 4
# Processed by: cddbd v1.4PL0 Copyright (c) Steve Scherf et al.
# Submitted via: CDex 1.40Release
#
DISCID=2910d615
DTITLE=Jan Spaleny - Ted bych to udelal lip (1979 - 1985) CD1
DYEAR=2001
DGENRE=Blues
TTITLE0=Ja se Te nevzdam
TTITLE1=Co mi chybi
TTITLE2=Blues s modryma ocima (Velkopopovicky)
TTITLE3=Dest
TTITLE4=Moje Marie nic netusi
TTITLE5=Sto tisic modrych slunci
TTITLE6=Jsi trochu povadla
TTITLE7=Mas jen nas
TTITLE8=Obycejny vitr
TTITLE9=Snih
TTITLE10=Uz jsem toho snedl moc
TTITLE11=Ted bych to udelal lip
TTITLE12=Thinking of only You, little baby blue eyes
TTITLE13=Turpentine blues
TTITLE14=Oh boy
TTITLE15=July is here
TTITLE16=St. james infirmary blues
TTITLE17=There must be some kinda catch
TTITLE18=How I grew up
TTITLE19=Boiler blues
TTITLE20=Basin street blues
EXTD=YEAR: 2001 ID3G: 0
EXTT0=
EXTT1=
EXTT2=
EXTT3=
EXTT4=
EXTT5=
EXTT6=
EXTT7=
EXTT8=
EXTT9=
EXTT10=
EXTT11=
EXTT12=
EXTT13=
EXTT14=
EXTT15=
EXTT16=
EXTT17=
EXTT18=
EXTT19=
EXTT20=
PLAYORDER=
